HIERARCHY
ROOT hip
{
	OFFSET 0.000000 0.000000 0.000000 
	CHANNELS 6 Xposition Yposition Zposition Xrotation Zrotation Yrotation
	JOINT abdomen
	{
		OFFSET 0.000000 3.402643 0.000000 
		CHANNELS 3 Xrotation Zrotation Yrotation
		JOINT chest
		{
			OFFSET 0.000000 8.438565 -0.680529 
			CHANNELS 3 Xrotation Zrotation Yrotation
			JOINT neck
			{
				OFFSET 0.000000 10.207942 -0.272212 
				CHANNELS 3 Xrotation Zrotation Yrotation
				JOINT head
				{
					OFFSET 0.000000 3.130431 0.000000 
					CHANNELS 3 Xrotation Zrotation Yrotation
					End Site
					{
						OFFSET 0.000000 3.130435 0.000000 
					}
				}
			}
			JOINT lCollar
			{
				OFFSET 3.470700 6.669187 -0.816635 
				CHANNELS 3 Yrotation Zrotation Xrotation
				JOINT lShldr
				{
					OFFSET 3.198488 0.000000 0.000000 
					CHANNELS 3 Zrotation Yrotation Xrotation
					JOINT lForeArm
					{
						OFFSET 10.139888 0.000000 0.000000 
						CHANNELS 3 Yrotation Zrotation Xrotation
						JOINT lHand
						{
							OFFSET 8.370511 0.000000 0.000000 
							CHANNELS 3 Zrotation Yrotation Xrotation
							End Site
							{
								OFFSET 4.083176 0.000000 0.000000 
							}
						}
					}
				}
			}
			JOINT rCollar
			{
				OFFSET -3.470700 6.669187 -0.816635 
				CHANNELS 3 Yrotation Zrotation Xrotation
				JOINT rShldr
				{
					OFFSET -3.198488 0.000000 0.000000 
					CHANNELS 3 Zrotation Yrotation Xrotation
					JOINT rForeArm
					{
						OFFSET -10.139888 0.000000 0.000000 
						CHANNELS 3 Yrotation Zrotation Xrotation
						JOINT rHand
						{
							OFFSET -8.370511 0.000000 0.000000 
							CHANNELS 3 Zrotation Yrotation Xrotation
							End Site
							{
								OFFSET -4.083176 0.000000 0.000000 
							}
						}
					}
				}
			}
		}
	}
	JOINT lThigh
	{
		OFFSET 5.308129 -1.633274 1.361059 
		CHANNELS 3 Xrotation Zrotation Yrotation
		JOINT lShin
		{
			OFFSET -2.041588 -20.007561 0.000000 
			CHANNELS 3 Xrotation Zrotation Yrotation
			JOINT lFoot
			{
				OFFSET 0.000000 -19.190928 -1.224953 
				CHANNELS 3 Xrotation Yrotation Zrotation
				End Site
				{
					OFFSET 0.000000 -2.449906 4.627600 
				}
			}
		}
	}
	JOINT rThigh
	{
		OFFSET -5.308129 -1.633274 1.361059 
		CHANNELS 3 Xrotation Zrotation Yrotation
		JOINT rShin
		{
			OFFSET 2.041588 -20.007561 0.000000 
			CHANNELS 3 Xrotation Zrotation Yrotation
			JOINT rFoot
			{
				OFFSET 0.000000 -19.190928 -1.224953 
				CHANNELS 3 Xrotation Yrotation Zrotation
				End Site
				{
					OFFSET 0.000000 -2.449906 4.627600 
				}
			}
		}
	}
}
MOTION
Frames: 8
Frame Time: 0.033333
-24.494503 41.675629 -71.664658 14.112592 -17.878990 53.376633 0.000000 0.000000 0.000000 40.405071 11.670009 10.844651 -8.603516 0.000000 0.000000 -39.908707 -10.725883 -0.655771 -2.957607 -0.090307 -0.002318 -51.818436 -30.707127 -48.251438 -60.135712 -39.136047 -5.629460 44.089031 -26.653221 -15.794505 2.957607 0.090307 -0.002334 -19.884993 21.146248 -69.116470 24.791540 10.256767 9.748649 -40.877159 16.835203 -19.815689 -68.505371 21.913866 -10.763816 46.744320 -6.086812 -1.664210 -10.563449 -10.683224 -24.550898 -36.141457 -52.581940 -17.594381 39.668854 5.381045 11.464728 -13.659011 5.834416 30.542639 
-24.926867 41.319969 -71.465469 13.687013 -16.889151 53.461464 0.000000 0.000000 0.000000 40.943443 11.624303 11.703377 -8.603516 0.000000 0.000000 -39.350384 -11.292002 -1.032420 -2.957607 -0.090307 -0.002318 -52.498775 -29.684763 -49.938705 -62.158451 -40.924461 -6.439815 43.899040 -26.345678 -15.956567 2.957607 0.090307 -0.002334 -22.986816 20.621437 -71.251472 20.537184 8.234347 9.393148 -39.150414 16.981335 -19.197128 -67.848732 22.098938 -10.867929 47.190781 -5.981550 -1.881624 -10.781992 -10.343472 -24.662441 -35.476971 -52.737324 -17.589245 40.364700 5.521078 11.548368 -15.115930 5.882385 30.914474 
-25.165937 41.083733 -71.252113 13.146545 -15.874410 53.393192 0.000000 0.000000 0.000000 41.732243 11.728831 12.065618 -8.603516 0.000000 0.000000 -39.352978 -11.799252 -0.418782 -2.957607 -0.090307 -0.002318 -51.411198 -29.100260 -52.357677 -62.763771 -42.281651 -7.151690 43.866249 -26.407326 -15.829458 2.957607 0.090307 -0.002334 -22.110815 20.749939 -71.275436 16.968851 7.120243 8.643323 -38.154812 17.173149 -18.905594 -66.652985 22.645123 -10.850112 47.359825 -6.028371 -2.025133 -11.116859 -10.174150 -24.725559 -33.720451 -52.457996 -18.222818 40.715900 5.530994 11.672126 -16.877575 5.779261 31.175585 
-25.185877 40.924431 -71.115479 12.078194 -14.653709 53.483006 0.000000 0.000000 0.000000 42.911755 12.258336 11.538400 -8.603516 0.000000 0.000000 -39.474792 -11.662452 1.153474 -2.957607 -0.090307 -0.002318 -49.399952 -28.571825 -54.968391 -62.456589 -42.861790 -7.102318 43.802044 -26.079268 -15.992142 2.957607 0.090307 -0.002334 -16.863428 22.103403 -69.325119 16.737049 7.308586 8.361071 -38.311424 17.483477 -18.134554 -64.916222 23.289780 -10.770878 47.480049 -5.972433 -2.111030 -11.476374 -10.316610 -24.687593 -30.878132 -51.799030 -19.962006 40.689362 5.140157 12.075723 -18.157375 5.803756 31.015697 
-25.049232 40.918766 -70.953339 11.006655 -13.621688 53.674007 0.000000 0.000000 0.000000 43.742191 13.453163 10.229955 -8.603516 0.000000 0.000000 -39.134762 -11.097425 3.462472 -2.957607 -0.090307 -0.002318 -46.209606 -28.097052 -57.988819 -61.168919 -42.510311 -6.728477 43.712124 -26.714735 -16.031706 2.957607 0.090307 -0.002334 -8.950139 24.988598 -68.028610 18.899612 8.287118 8.943183 -38.813911 18.754841 -16.739681 -63.093872 23.856930 -10.938192 47.451748 -5.970133 -2.078913 -11.904639 -10.395332 -24.749077 -27.959311 -51.121437 -21.780369 40.311459 4.691034 12.728687 -18.794210 5.780737 30.812359 
-24.821722 40.972809 -70.776932 9.815248 -12.765930 54.000160 0.000000 0.000000 0.000000 43.903267 15.008126 8.048082 -8.603516 0.000000 0.000000 -37.696381 -10.194591 6.029812 -2.957607 -0.090307 -0.002318 -40.515873 -27.977430 -61.796833 -58.159054 -40.782776 -5.480882 43.211643 -25.982355 -16.644974 2.957607 0.090307 -0.002334 1.159833 28.600363 -67.200493 21.560612 9.459734 9.551371 -39.322948 20.790503 -15.529567 -61.256004 24.403324 -11.356259 47.343987 -5.904340 -1.923999 -12.276957 -10.514214 -24.926889 -24.717045 -50.550060 -22.819685 39.667072 5.032753 12.865409 -18.844927 5.380527 30.576275 
-24.594095 41.049629 -70.646065 8.593617 -12.190016 54.363686 0.000000 0.000000 0.000000 43.221432 16.338411 5.677758 -8.603516 0.000000 0.000000 -35.781071 -9.360377 8.115545 -2.957607 -0.090307 -0.002318 -32.495056 -28.935253 -65.911461 -52.461494 -38.064800 -3.178869 43.587955 -23.821899 -18.002493 2.957607 0.090307 -0.002334 13.039710 32.286331 -63.610085 23.561232 10.461692 9.440788 -39.999729 22.076710 -14.585031 -59.678246 24.968616 -11.886141 47.219536 -5.832417 -1.697003 -12.618607 -10.751934 -25.139225 -21.992649 -49.741688 -23.659822 39.016586 5.149641 12.798468 -18.657450 5.270495 30.497665 
-24.238438 41.211765 -70.546471 7.647884 -11.975738 54.417892 0.000000 0.000000 0.000000 42.248650 17.015360 3.822278 -8.603516 0.000000 0.000000 -34.123955 -8.503085 9.632104 -2.957607 -0.090307 -0.002318 -21.894432 -30.922274 -70.765724 -43.818832 -33.473442 -0.360473 44.170349 -21.291134 -19.679396 2.957607 0.090307 -0.002334 25.513926 33.554325 -56.350548 24.522953 11.181236 8.930072 -41.087158 22.720139 -14.877318 -58.548626 25.701487 -12.367226 47.068253 -5.835527 -1.497957 -12.855665 -10.958772 -25.274349 -20.450514 -48.878925 -23.623903 38.791634 5.306037 12.558633 -18.311394 5.020281 30.567766 
